{
  "asset": {
    "version": "2.0",
    "generator": "THREE.GLTFExporter"
  },
  "scenes": [
    {
      "name": "Scene",
      "nodes": [
        7
      ]
    }
  ],
  "scene": 0,
  "nodes": [
    {
      "name": "Object_5",
      "extras": {
        "name": "Object_5"
      },
      "mesh": 0
    },
    {
      "name": "Object_4",
      "extras": {
        "name": "Object_4"
      },
      "mesh": 1
    },
    {
      "matrix": [
        0.08532895892858505,
        0,
        0,
        0,
        0,
        1.894683497396189e-17,
        0.08532895892858505,
        0,
        0,
        -0.08532895892858505,
        1.894683497396189e-17,
        0,
        -1.7247004508972168,
        1.6525249481201172,
        -1.928640604019165,
        1
      ],
      "name": "Base_0",
      "extras": {
        "name": "Base_0"
      },
      "children": [
        0,
        1
      ]
    },
    {
      "matrix": [
        0.08131628375235891,
        7.67095907949224e-11,
        -0.001819941255504375,
        0,
        0.0018199412555043755,
        -6.85573765094689e-9,
        0.08131628375235865,
        0,
        -7.670959079492241e-11,
        -0.08133664727210972,
        -6.85573765094689e-9,
        0,
        -3.380058765411377,
        1.6261637210845947,
        -1.6938278675079346,
        1
      ],
      "name": "Temples_1",
      "extras": {
        "name": "Temples_1"
      }
    },
    {
      "matrix": [
        1,
        0,
        0,
        0,
        0,
        2.220446049250313e-16,
        1,
        0,
        0,
        -1,
        2.220446049250313e-16,
        0,
        0,
        0,
        0,
        1
      ],
      "name": "GLTF_SceneRootNode",
      "extras": {
        "name": "GLTF_SceneRootNode"
      },
      "children": [
        2,
        3
      ]
    },
    {
      "name": "root",
      "extras": {
        "name": "root"
      },
      "children": [
        4
      ]
    },
    {
      "matrix": [
        1,
        0,
        0,
        0,
        0,
        2.220446049250313e-16,
        -1,
        0,
        0,
        1,
        2.220446049250313e-16,
        0,
        0,
        0,
        0,
        1
      ],
      "name": "Sketchfab_model",
      "extras": {
        "name": "Sketchfab_model"
      },
      "children": [
        5
      ]
    },
    {
      "name": "scene.gltf",
      "children": [
        6
      ]
    }
  ],
  "bufferViews": [
    {
      "buffer": 0,
      "byteOffset": 0,
      "byteLength": 3360,
      "target": 34962,
      "byteStride": 12
    },
    {
      "buffer": 0,
      "byteOffset": 3360,
      "byteLength": 3360,
      "target": 34962,
      "byteStride": 12
    },
    {
      "buffer": 0,
      "byteOffset": 6720,
      "byteLength": 2240,
      "target": 34962,
      "byteStride": 8
    },
    {
      "buffer": 0,
      "byteOffset": 8960,
      "byteLength": 3312,
      "target": 34963
    },
    {
      "buffer": 0,
      "byteOffset": 12272,
      "byteLength": 63492,
      "target": 34962,
      "byteStride": 12
    },
    {
      "buffer": 0,
      "byteOffset": 75764,
      "byteLength": 63492,
      "target": 34962,
      "byteStride": 12
    },
    {
      "buffer": 0,
      "byteOffset": 139256,
      "byteLength": 84656,
      "target": 34962,
      "byteStride": 16
    },
    {
      "buffer": 0,
      "byteOffset": 223912,
      "byteLength": 42328,
      "target": 34962,
      "byteStride": 8
    },
    {
      "buffer": 0,
      "byteOffset": 266240,
      "byteLength": 42328,
      "target": 34962,
      "byteStride": 8
    },
    {
      "buffer": 0,
      "byteOffset": 308568,
      "byteLength": 42328,
      "target": 34962,
      "byteStride": 8
    },
    {
      "buffer": 0,
      "byteOffset": 350896,
      "byteLength": 42328,
      "target": 34962,
      "byteStride": 8
    },
    {
      "buffer": 0,
      "byteOffset": 393224,
      "byteLength": 111360,
      "target": 34963
    }
  ],
  "buffers": [
    {
      "byteLength": 504584,
      "uri": "data:application/octet-stream;base64,"
    }
  ],
  "accessors": [
    {
      "bufferView": 0,
      "componentType": 5126,
      "count": 280,
      "max": [
        0.9370806813240051,
        0.47246089577674866,
        0.8967760801315308
      ],
      "min": [
        -0.9370806813240051,
        0.3490743637084961,
        -0.8947427868843079
      ],
      "type": "VEC3"
    },
    {
      "bufferView": 1,
      "componentType": 5126,
      "count": 280,
      "max": [
        39.38896179199219,
        20.3332462310791,
        22.203889846801758
      ],
      "min": [
        1.0357775688171387,
        18.606746673583984,
        10.413415908813477
      ],
      "type": "VEC3"
    },
    {
      "bufferView": 2,
      "componentType": 5126,
      "count": 280,
      "max": [
        0.9997652173042297,
        0.9029284715652466
      ],
      "min": [
        0.7056806087493896,
        0.00023476638307329267
      ],
      "type": "VEC2"
    },
    {
      "bufferView": 3,
      "componentType": 5125,
      "count": 828,
      "max": [
        279
      ],
      "min": [
        0
      ],
      "type": "SCALAR"
    },
    {
      "bufferView": 4,
      "componentType": 5126,
      "count": 5291,
      "max": [
        1,
        0.9998112916946411,
        0.9999880790710449
      ],
      "min": [
        -0.9946463704109192,
        -0.9994592666625977,
        -0.9999759197235107
      ],
      "type": "VEC3"
    },
    {
      "bufferView": 5,
      "componentType": 5126,
      "count": 5291,
      "max": [
        41.42564010620117,
        21.311079025268555,
        23.029254913330078
      ],
      "min": [
        -1.0008958578109741,
        17.610639572143555,
        9.532752990722656
      ],
      "type": "VEC3"
    },
    {
      "bufferView": 6,
      "componentType": 5126,
      "count": 5291,
      "max": [
        0.9995645880699158,
        0.9999926686286926,
        0.9999955892562866,
        1
      ],
      "min": [
        -0.9996328949928284,
        -0.9999881982803345,
        -0.999999463558197,
        1
      ],
      "type": "VEC4"
    },
    {
      "bufferView": 7,
      "componentType": 5126,
      "count": 5291,
      "max": [
        0.7265540957450867,
        0.9455059766769409
      ],
      "min": [
        0.00023476638307329267,
        0.00023476638307329267
      ],
      "type": "VEC2"
    },
    {
      "bufferView": 8,
      "componentType": 5126,
      "count": 5291,
      "max": [
        0.7265540957450867,
        0.9455059766769409
      ],
      "min": [
        0.00023476638307329267,
        0.00023476638307329267
      ],
      "type": "VEC2"
    },
    {
      "bufferView": 9,
      "componentType": 5126,
      "count": 5291,
      "max": [
        0.7265540957450867,
        0.9455059766769409
      ],
      "min": [
        0.00023476638307329267,
        0.00023476638307329267
      ],
      "type": "VEC2"
    },
    {
      "bufferView": 10,
      "componentType": 5126,
      "count": 5291,
      "max": [
        0.7265540957450867,
        0.9455059766769409
      ],
      "min": [
        0.00023476638307329267,
        0.00023476638307329267
      ],
      "type": "VEC2"
    },
    {
      "bufferView": 11,
      "componentType": 5125,
      "count": 27840,
      "max": [
        5290
      ],
      "min": [
        0
      ],
      "type": "SCALAR"
    }
  ],
  "materials": [
    {
      "pbrMetallicRoughness": {
        "baseColorFactor": [
          0.8,
          0.8,
          0.8,
          0.2
        ],
        "metallicFactor": 0,
        "roughnessFactor": 0.0119048
      },
      "emissiveFactor": [
        0.8588235294117647,
        0.8588235294117647,
        0.8588235294117647
      ],
      "alphaMode": "BLEND",
      "doubleSided": true,
      "name": "glass"
    },
    {
      "pbrMetallicRoughness": {
        "metallicFactor": 0,
        "roughnessFactor": 1,
        "metallicRoughnessTexture": {
          "index": 0
        },
        "baseColorTexture": {
          "index": 1
        }
      },
      "normalTexture": {
        "index": 2,
        "scale": 0.4
      },
      "doubleSided": true,
      "name": "Plastico"
    }
  ],
  "meshes": [
    {
      "primitives": [
        {
          "mode": 4,
          "attributes": {
            "NORMAL": 0,
            "POSITION": 1,
            "TEXCOORD_0": 2
          },
          "indices": 3,
          "material": 0
        }
      ]
    },
    {
      "primitives": [
        {
          "mode": 4,
          "attributes": {
            "NORMAL": 4,
            "POSITION": 5,
            "TANGENT": 6,
            "TEXCOORD_0": 7,
            "TEXCOORD_1": 8,
            "TEXCOORD_2": 9,
            "TEXCOORD_3": 10
          },
          "indices": 11,
          "material": 1
        }
      ]
    }
  ],
  "textures": [
    {
      "sampler": 0,
      "source": 0
    },
    {
      "sampler": 1,
      "source": 1
    },
    {
      "sampler": 2,
      "source": 2
    }
  ],
  "samplers": [
    {
      "magFilter": 9729,
      "minFilter": 9987,
      "wrapS": 10497,
      "wrapT": 10497
    },
    {
      "magFilter": 9729,
      "minFilter": 9987,
      "wrapS": 10497,
      "wrapT": 10497
    },
    {
      "magFilter": 9729,
      "minFilter": 9987,
      "wrapS": 10497,
      "wrapT": 10497
    }
  ],
  "images": [
    {
      "mimeType": "image/png",
      "uri": "data:image/png;base64,"
    },
    {
      "mimeType": "image/png",
      "uri": "data:image/png;base64,"
    },
    {
      "mimeType": "image/png",
      "uri": "data:image/png;base64,"
    }
  ]
}